<?xml version="1.0" standalone="no"?>
<!DOCTYPE svg PUBLIC "-//W3C//DTD SVG 20010904//EN"
 "http://www.w3.org/TR/2001/REC-SVG-20010904/DTD/svg10.dtd">
<svg version="1.0" xmlns="http://www.w3.org/2000/svg"
 width="172" height="33" viewBox="0 0 6000 1000.000000"
 preserveAspectRatio="xMidYMid meet">

<g transform="translate(0.000000,1041.000000) scale(0.100000,-0.100000)"
fill="#000080" stroke="none">
<path d="M3670 10394 c-19 -2 -84 -9 -145 -15 -862 -87 -1698 -482 -2334
-1104 -821 -803 -1242 -1882 -1182 -3030 8 -159 9 -288 2 -418 -23 -482 34
-941 175 -1387 323 -1024 1051 -1870 2019 -2350 413 -204 789 -317 1265 -382
141 -19 211 -22 485 -22 342 -1 453 8 735 60 1661 305 2958 1661 3190 3334 32
230 44 527 31 761 -9 157 -9 243 0 365 14 187 7 499 -16 689 -75 637 -271
1184 -612 1708 -576 886 -1476 1502 -2508 1717 -279 58 -419 72 -760 75 -170
2 -326 1 -345 -1z m643 -1940 c327 -42 617 -130 918 -281 735 -367 1272 -1031
1479 -1829 53 -205 61 -272 44 -371 -79 -460 -278 -904 -570 -1273 -96 -121
-361 -382 -479 -471 -339 -258 -699 -430 -1096 -523 -216 -51 -376 -69 -629
-70 -139 -1 -278 4 -340 12 -539 67 -1036 273 -1450 602 -125 99 -349 321
-444 440 -286 358 -489 800 -570 1241 -24 127 -24 128 -6 226 90 502 345 1013
695 1393 494 537 1153 859 1882 920 140 11 410 4 566 -16z"/>
<path d="M23940 7875 c-818 -100 -1451 -522 -1770 -1180 -100 -205 -163 -415
-207 -690 -17 -102 -18 -222 -18 -1665 l0 -1555 23 -46 c29 -59 82 -112 141
-141 42 -21 63 -23 223 -26 145 -3 187 -1 228 13 62 21 141 91 172 153 l23 47
5 1525 c6 1525 6 1525 28 1621 66 291 183 509 378 703 163 164 356 280 587
355 201 64 287 76 557 76 206 -1 248 -4 340 -24 307 -66 542 -187 745 -383
190 -183 323 -410 391 -670 50 -191 47 -111 53 -1708 l6 -1495 27 -50 c31 -60
77 -104 138 -136 43 -23 55 -24 240 -24 185 0 197 1 244 24 64 31 113 82 143
147 l24 52 -4 1563 c-3 1741 1 1625 -72 1915 -114 449 -354 832 -692 1105
-321 259 -761 436 -1224 494 -152 19 -576 19 -729 0z"/>
<path d="M30265 7883 c-338 -32 -738 -157 -1038 -325 -677 -380 -1142 -1013
-1306 -1779 -11 -53 -27 -152 -35 -220 -70 -587 24 -1133 277 -1623 342 -662
912 -1125 1626 -1322 626 -173 1315 -123 1891 136 772 348 1328 1043 1504
1875 53 253 72 615 46 876 -37 370 -145 723 -318 1034 -421 760 -1140 1237
-2018 1340 -118 14 -512 19 -629 8z m639 -802 c206 -42 446 -136 616 -243 400
-251 699 -672 816 -1153 71 -291 72 -670 3 -965 -90 -387 -290 -729 -572 -978
-637 -564 -1619 -600 -2303 -86 -406 305 -678 798 -735 1329 -14 136 -6 433
16 565 85 514 348 946 750 1236 107 76 334 191 460 233 216 70 363 90 630 87
169 -3 231 -7 319 -25z"/>
<path d="M11153 7823 c-61 -21 -136 -92 -164 -155 l-24 -53 0 -1500 c0 -1647
-2 -1581 61 -1862 190 -851 817 -1445 1716 -1627 244 -49 286 -51 1053 -51
l720 0 51 27 c65 34 128 106 149 169 14 40 16 83 13 231 -3 167 -5 187 -26
225 -31 59 -86 111 -146 139 l-51 24 -610 0 c-335 0 -661 5 -724 10 -390 35
-710 178 -961 430 -253 253 -393 576 -420 971 -6 83 -10 711 -10 1473 0 958
-3 1339 -11 1366 -20 65 -78 131 -148 167 l-63 33 -181 -1 c-134 0 -193 -4
-224 -16z"/>
<path d="M16005 7827 c-86 -34 -142 -86 -179 -166 l-21 -46 0 -1520 c0 -1408
1 -1529 18 -1645 28 -197 55 -314 108 -475 268 -812 954 -1331 1899 -1441 182
-21 596 -15 760 11 624 97 1135 371 1460 780 240 302 383 639 452 1062 22 138
22 138 25 1667 3 1343 2 1535 -11 1581 -19 62 -78 134 -144 173 -46 26 -51 27
-239 30 -186 3 -195 3 -245 -21 -72 -32 -108 -66 -143 -129 l-30 -53 -5 -1515
c-6 -1686 -2 -1572 -75 -1800 -99 -304 -302 -563 -581 -742 -415 -266 -1049
-314 -1534 -116 -192 78 -343 181 -491 336 -188 196 -302 417 -370 717 l-23
100 -6 1500 -5 1500 -28 57 c-34 69 -101 131 -164 152 -58 20 -380 22 -428 3z"/>
</g>
</svg>
