<?xml version="1.0" standalone="no"?>
<!DOCTYPE svg PUBLIC "-//W3C//DTD SVG 20010904//EN"
 "http://www.w3.org/TR/2001/REC-SVG-20010904/DTD/svg10.dtd">

<svg version="1.0" xmlns="http://www.w3.org/2000/svg"
 width="172" height="33" viewBox="0 0 320.000000 66.000000"
 preserveAspectRatio="xMidYMid meet">

<g transform="translate(0.000000,66.000000) scale(0.100000,-0.100000)"
fill="#000000" stroke="none">
<path d="M3015 626 c-29 -13 -120 -105 -111 -113 2 -2 33 1 70 8 36 6 73 9 81
6 10 -5 15 -27 17 -86 l3 -80 53 69 c39 53 52 78 52 104 0 40 -16 87 -33 98
-19 12 -99 8 -132 -6z"/>
<path d="M650 375 l0 -205 25 0 c14 0 25 5 25 10 0 6 14 3 32 -6 38 -20 100
-14 130 13 70 62 62 211 -15 267 -32 24 -87 25 -122 2 l-25 -16 0 70 c0 68 -1
70 -25 70 l-25 0 0 -205z m197 -3 c19 -45 10 -108 -19 -139 -28 -30 -74 -30
-105 -1 -19 18 -23 32 -23 79 0 73 6 88 43 104 45 19 85 2 104 -43z"/>
<path d="M952 553 c2 -22 9 -29 31 -31 24 -3 27 0 27 27 0 28 -3 31 -31 31
-27 0 -30 -3 -27 -27z"/>
<path d="M1370 375 l0 -205 30 0 30 0 0 108 c0 124 9 142 73 142 50 0 57 -18
57 -144 l0 -106 30 0 30 0 0 110 c0 119 -12 159 -52 181 -31 17 -97 13 -119
-7 -18 -17 -19 -15 -19 54 l0 72 -30 0 -30 0 0 -205z"/>
<path d="M2480 511 l0 -69 -37 19 c-61 32 -122 6 -154 -64 -62 -138 45 -284
164 -223 15 8 27 11 27 5 0 -5 14 -9 30 -9 l30 0 0 205 0 205 -30 0 -30 0 0
-69z m-15 -114 c9 -14 15 -45 15 -84 0 -78 -21 -106 -77 -101 -47 4 -75 40
-75 99 -1 63 10 89 44 103 38 16 74 9 93 -17z"/>
<path d="M20 365 l0 -195 30 0 30 0 0 75 0 75 64 0 c79 0 96 -17 96 -97 0 -52
0 -53 30 -53 27 0 30 3 30 33 -1 54 -18 111 -39 128 -21 17 -21 17 3 33 58 38
54 139 -8 177 -25 15 -50 19 -133 19 l-103 0 0 -195z m210 125 c11 -11 20 -33
20 -48 0 -44 -30 -63 -105 -69 l-65 -6 0 72 0 71 65 0 c52 0 69 -4 85 -20z"/>
<path d="M2939 493 l-77 -14 -56 -76 c-33 -43 -55 -82 -52 -92 18 -63 16 -101
-8 -185 -28 -97 -30 -106 -18 -106 5 0 24 35 42 77 58 133 150 287 222 368 17
20 29 37 27 39 -2 1 -38 -4 -80 -11z"/>
<path d="M415 461 c-129 -60 -101 -283 38 -298 90 -10 147 48 147 152 0 121
-88 191 -185 146z m109 -60 c20 -22 32 -88 22 -126 -16 -64 -86 -86 -131 -40
-33 33 -36 119 -4 159 26 33 86 37 113 7z"/>
<path d="M1185 473 c-11 -3 -26 -10 -33 -16 -10 -8 -16 -7 -21 2 -5 7 -19 11
-32 9 -24 -3 -24 -4 -27 -150 l-3 -148 31 0 30 0 0 108 c0 124 9 142 73 142
50 0 57 -18 57 -144 l0 -106 30 0 30 0 0 105 c0 112 -14 166 -47 183 -26 13
-65 20 -88 15z"/>
<path d="M1756 470 c-60 -19 -96 -76 -96 -155 0 -91 56 -155 136 -155 105 0
166 124 115 237 -29 63 -91 92 -155 73z m105 -87 c20 -37 16 -109 -8 -141 -27
-36 -77 -41 -108 -12 -30 28 -40 88 -25 136 22 66 109 77 141 17z"/>
<path d="M2066 470 c-119 -36 -136 -240 -25 -297 78 -41 168 8 189 103 18 81
-18 161 -87 190 -36 16 -37 16 -77 4z m93 -76 c41 -52 19 -167 -34 -180 -63
-16 -105 27 -105 109 0 62 29 97 80 97 30 0 43 -6 59 -26z"/>
<path d="M2989 425 c-69 -90 -169 -256 -169 -279 0 -3 35 8 78 24 75 27 78 29
114 91 32 54 37 73 37 119 -1 30 -4 66 -8 80 -6 23 -9 21 -52 -35z"/>
<path d="M960 320 l0 -150 25 0 25 0 0 150 0 150 -25 0 -25 0 0 -150z"/>
<path d="M2852 131 c-40 -16 -61 -35 -62 -54 0 -4 27 6 60 23 33 17 60 35 60
40 0 13 -7 12 -58 -9z"/>
</g>
</svg>
