<?xml version="1.0" standalone="no"?>
<!DOCTYPE svg PUBLIC "-//W3C//DTD SVG 20010904//EN"
 "http://www.w3.org/TR/2001/REC-SVG-20010904/DTD/svg10.dtd">
<svg version="1.0" xmlns="http://www.w3.org/2000/svg"
 width="366.000000pt" height="56.000000pt" viewBox="0 0 366.000000 56.000000"
 preserveAspectRatio="xMidYMid meet">

<g transform="translate(0.000000,56.000000) scale(0.100000,-0.100000)"
fill="#306EFF" stroke="none">
<path d="M165 508 c-10 -59 -36 -106 -95 -174 -69 -79 -85 -140 -55 -212 19
-43 50 -79 87 -98 43 -22 48 -17 28 29 -36 79 -27 113 64 241 33 48 38 62 37
106 -1 50 -29 131 -49 144 -6 3 -13 -11 -17 -36z"/>
<path d="M462 228 l3 -193 33 -3 32 -3 0 91 0 91 78 -3 77 -3 5 -85 5 -85 33
-3 32 -3 -2 193 -3 193 -32 3 -33 3 0 -75 0 -76 -80 0 -79 0 -3 73 -3 72 -33
3 -32 3 2 -193z"/>
<path d="M1450 275 c0 -163 8 -192 63 -225 61 -38 156 -18 190 39 21 37 23
131 2 171 -22 43 -68 63 -131 58 l-53 -5 -3 51 c-3 49 -4 51 -35 54 l-33 3 0
-146z m184 -31 c33 -32 32 -100 -1 -136 -21 -24 -68 -23 -93 2 -26 26 -28 105
-3 132 20 22 76 24 97 2z"/>
<path d="M1785 404 c-19 -20 -16 -43 8 -58 20 -13 50 2 55 26 3 16 -23 48 -38
48 -5 0 -16 -7 -25 -16z"/>
<path d="M2053 406 c3 -8 25 -87 48 -177 44 -170 57 -199 94 -199 19 0 25 14
55 115 18 63 34 115 36 115 2 0 17 -46 35 -102 35 -116 42 -128 75 -128 26 0
28 4 85 226 29 114 32 134 20 148 -8 9 -23 16 -35 14 -17 -3 -25 -22 -50 -123
l-30 -120 -18 65 c-51 177 -51 175 -82 175 -26 0 -30 -5 -43 -50 -8 -27 -24
-81 -35 -120 l-20 -70 -27 110 c-15 61 -30 116 -35 123 -11 18 -80 16 -73 -2z"/>
<path d="M2810 266 c0 -84 5 -167 11 -184 12 -34 49 -52 106 -52 59 0 57 61
-3 68 -16 2 -32 9 -36 15 -4 7 -8 78 -8 160 l0 147 -35 0 -35 0 0 -154z"/>
<path d="M3010 260 c0 -95 4 -169 11 -183 14 -31 48 -47 100 -47 39 0 40 1 37
33 -3 28 -7 33 -38 37 l-35 5 -3 158 -3 157 -34 0 -35 0 0 -160z"/>
<path d="M3490 256 c0 -159 1 -166 23 -192 20 -23 34 -28 86 -32 l63 -5 -4 29
c-2 24 -9 30 -38 34 -57 10 -60 15 -60 96 l0 74 45 0 c33 0 47 5 52 16 11 28
-11 49 -55 52 -40 3 -41 4 -44 45 -3 39 -5 42 -35 45 l-33 3 0 -165z"/>
<path d="M237 238 c-53 -104 -58 -144 -27 -196 l20 -33 42 32 c43 34 77 96 78
139 0 41 -19 98 -43 125 l-22 26 -48 -93z"/>
<path d="M2553 323 c-7 -2 -13 -16 -13 -30 0 -25 1 -25 54 -19 59 8 96 -4 96
-29 0 -10 -10 -15 -28 -15 -109 0 -178 -83 -124 -149 21 -27 93 -44 147 -35
74 12 75 13 75 124 0 115 -3 126 -41 145 -27 14 -138 20 -166 8z m131 -149
c10 -4 16 -18 16 -41 l0 -34 -52 3 c-49 3 -53 5 -53 28 0 35 49 59 89 44z"/>
<path d="M3280 321 c-70 -22 -107 -85 -97 -161 7 -57 29 -85 81 -105 60 -23
109 -13 150 28 l31 32 -34 3 c-18 2 -38 -1 -44 -7 -6 -6 -28 -11 -49 -11 -29
0 -41 6 -54 25 -8 13 -13 29 -9 35 3 6 44 10 96 10 l89 0 0 36 c0 39 -22 84
-50 102 -25 16 -81 22 -110 13z m84 -73 c15 -25 5 -29 -58 -26 l-57 3 17 23
c12 18 24 22 51 20 20 -2 41 -10 47 -20z"/>
<path d="M820 216 c0 -122 8 -149 52 -176 61 -37 153 -17 183 39 12 24 15 55
13 134 l-3 102 -32 3 -33 3 0 -96 c0 -53 -5 -105 -10 -116 -12 -22 -74 -27
-87 -7 -4 7 -10 58 -13 113 l-5 100 -32 3 -33 3 0 -105z"/>
<path d="M1193 305 c-47 -20 -73 -68 -73 -135 0 -73 24 -112 84 -135 116 -44
215 49 187 176 -20 90 -110 133 -198 94z m114 -67 c19 -15 17 -113 -3 -132
-20 -21 -73 -20 -96 1 -13 11 -18 30 -18 64 0 40 4 51 27 69 28 22 63 21 90
-2z"/>
<path d="M1782 173 l3 -138 28 -3 27 -3 0 140 0 141 -30 0 -31 0 3 -137z"/>
</g>
</svg>
